<?xml version="1.0" encoding="utf-8" standalone="no"?>
<!DOCTYPE svg PUBLIC "-//W3C//DTD SVG 1.1//EN"
  "http://www.w3.org/Graphics/SVG/1.1/DTD/svg11.dtd">
<svg xmlns:xlink="http://www.w3.org/1999/xlink" width="720pt" height="576pt" viewBox="0 0 720 576" xmlns="http://www.w3.org/2000/svg" version="1.1">
 <metadata>
  <rdf:RDF xmlns:dc="http://purl.org/dc/elements/1.1/" xmlns:cc="http://creativecommons.org/ns#" xmlns:rdf="http://www.w3.org/1999/02/22-rdf-syntax-ns#">
   <cc:Work>
    <dc:type rdf:resource="http://purl.org/dc/dcmitype/StillImage"/>
    <dc:date>2022-12-08T14:34:23.072865</dc:date>
    <dc:format>image/svg+xml</dc:format>
    <dc:creator>
     <cc:Agent>
      <dc:title>Matplotlib v3.5.1, https://matplotlib.org/</dc:title>
     </cc:Agent>
    </dc:creator>
   </cc:Work>
  </rdf:RDF>
 </metadata>
 <defs>
  <style type="text/css">*{stroke-linejoin: round; stroke-linecap: butt}</style>
 </defs>
 <g id="figure_1">
  <g id="patch_1">
   <path d="M 0 576 
L 720 576 
L 720 0 
L 0 0 
z
" style="fill: #ffffff"/>
  </g>
  <g id="patch_2">
   <path d="M 147.24 512.64 
L 590.76 512.64 
L 590.76 69.12 
L 147.24 69.12 
z
" style="fill: #ffffff"/>
  </g>
  <g id="pane3d_1">
   <g id="patch_3">
    <path d="M 180.728819 403.282182 
L 327.193607 280.512492 
L 325.157607 103.456652 
L 171.683723 215.454902 
" style="fill: #f2f2f2; opacity: 0.5; stroke: #f2f2f2; stroke-linejoin: miter"/>
   </g>
  </g>
  <g id="pane3d_2">
   <g id="patch_4">
    <path d="M 327.193607 280.512492 
L 562.217334 348.82461 
L 570.604503 165.670285 
L 325.157607 103.456652 
" style="fill: #e6e6e6; opacity: 0.5; stroke: #e6e6e6; stroke-linejoin: miter"/>
   </g>
  </g>
  <g id="pane3d_3">
   <g id="patch_5">
    <path d="M 180.728819 403.282182 
L 429.865448 484.650204 
L 562.217334 348.82461 
L 327.193607 280.512492 
" style="fill: #ececec; opacity: 0.5; stroke: #ececec; stroke-linejoin: miter"/>
   </g>
  </g>
  <g id="axis3d_1">
   <g id="line2d_1">
    <path d="M 180.728819 403.282182 
L 429.865448 484.650204 
" style="fill: none; stroke: #000000; stroke-width: 0.8; stroke-linecap: square"/>
   </g>
   <g id="text_1">
    <!-- $x\;\;\;\left(в\;единицах\;\frac{\hbar}{m \cdot c}\right)$ -->
    <g transform="translate(205.581495 457.664432)rotate(-341.912962)scale(0.16 -0.16)">
     <defs>
      <path id="DejaVuSans-Oblique-78" d="M 3841 3500 
L 2234 1784 
L 3219 0 
L 2559 0 
L 1819 1388 
L 531 0 
L -166 0 
L 1556 1844 
L 641 3500 
L 1300 3500 
L 1972 2234 
L 3144 3500 
L 3841 3500 
z
" transform="scale(0.015625)"/>
      <path id="STIXSizeOneSym-Regular-28" d="M 2445 -858 
L 2445 -1050 
Q 1728 -371 1309 630 
Q 890 1632 890 2886 
Q 890 4122 1309 5136 
Q 1728 6150 2445 6822 
L 2445 6630 
Q 1408 5363 1408 2886 
Q 1408 410 2445 -858 
z
" transform="scale(0.015625)"/>
      <path id="DejaVuSans-Oblique-432" d="M 2656 1159 
Q 2656 1613 1947 1613 
L 1128 1613 
L 906 459 
L 1725 459 
Q 2528 459 2644 1038 
Q 2656 1103 2656 1159 
z
M 1406 3041 
L 1219 2072 
L 1975 2072 
Q 2300 2072 2559 2217 
Q 2819 2363 2819 2647 
Q 2819 2819 2653 2930 
Q 2488 3041 2163 3041 
L 1406 3041 
z
M 922 3500 
L 2291 3500 
Q 2906 3500 3162 3300 
Q 3419 3100 3419 2809 
Q 3419 2725 3400 2634 
Q 3275 1981 2588 1888 
Q 2969 1813 3141 1575 
Q 3263 1406 3263 1175 
Q 3263 1084 3244 981 
Q 3153 513 2742 256 
Q 2331 0 1663 0 
L 241 0 
L 922 3500 
z
" transform="scale(0.015625)"/>
      <path id="DejaVuSans-Oblique-435" d="M 3078 2063 
Q 3088 2113 3092 2166 
Q 3097 2219 3097 2272 
Q 3097 2653 2873 2875 
Q 2650 3097 2266 3097 
Q 1838 3097 1509 2826 
Q 1181 2556 1013 2059 
L 3078 2063 
z
M 3578 1613 
L 903 1613 
Q 884 1494 878 1425 
Q 872 1356 872 1306 
Q 872 872 1139 634 
Q 1406 397 1894 397 
Q 2269 397 2603 481 
Q 2938 566 3225 728 
L 3116 159 
Q 2806 34 2476 -28 
Q 2147 -91 1806 -91 
Q 1078 -91 686 257 
Q 294 606 294 1247 
Q 294 1794 489 2264 
Q 684 2734 1063 3103 
Q 1306 3334 1642 3459 
Q 1978 3584 2356 3584 
Q 2950 3584 3301 3228 
Q 3653 2872 3653 2272 
Q 3653 2128 3634 1964 
Q 3616 1800 3578 1613 
z
" transform="scale(0.015625)"/>
      <path id="DejaVuSans-Oblique-434" d="M 1219 459 
L 2888 459 
L 3391 3041 
L 2181 3041 
L 2097 2603 
Q 1844 1316 1344 628 
L 1219 459 
z
M 384 459 
Q 694 584 872 850 
Q 1306 1509 1563 2838 
L 1691 3500 
L 4056 3500 
L 3466 459 
L 3925 459 
L 3666 -884 
L 3206 -884 
L 3378 0 
L 541 0 
L 369 -884 
L -91 -884 
L 169 459 
L 384 459 
z
" transform="scale(0.015625)"/>
      <path id="DejaVuSans-Oblique-438" d="M 3919 3500 
L 3238 0 
L 2666 0 
L 3213 2809 
L 978 0 
L 241 0 
L 922 3500 
L 1494 3500 
L 947 697 
L 3178 3500 
L 3919 3500 
z
" transform="scale(0.015625)"/>
      <path id="DejaVuSans-Oblique-43d" d="M 922 3500 
L 1500 3500 
L 1222 2072 
L 3088 2072 
L 3366 3500 
L 3944 3500 
L 3263 0 
L 2684 0 
L 2997 1613 
L 1131 1613 
L 819 0 
L 241 0 
L 922 3500 
z
" transform="scale(0.015625)"/>
      <path id="DejaVuSans-Oblique-446" d="M 3350 0 
L 328 0 
L 1006 3500 
L 1584 3500 
L 994 459 
L 2859 459 
L 3450 3500 
L 4028 3500 
L 3438 459 
L 3897 459 
L 3638 -884 
L 3178 -884 
L 3350 0 
z
" transform="scale(0.015625)"/>
      <path id="DejaVuSans-Oblique-430" d="M 3438 1997 
L 3047 0 
L 2472 0 
L 2578 531 
Q 2325 219 2001 64 
Q 1678 -91 1281 -91 
Q 834 -91 548 182 
Q 263 456 263 884 
Q 263 1497 752 1853 
Q 1241 2209 2100 2209 
L 2900 2209 
L 2931 2363 
Q 2938 2388 2941 2417 
Q 2944 2447 2944 2509 
Q 2944 2788 2717 2942 
Q 2491 3097 2081 3097 
Q 1800 3097 1504 3025 
Q 1209 2953 897 2809 
L 997 3341 
Q 1322 3463 1633 3523 
Q 1944 3584 2234 3584 
Q 2853 3584 3176 3315 
Q 3500 3047 3500 2534 
Q 3500 2431 3484 2292 
Q 3469 2153 3438 1997 
z
M 2816 1759 
L 2241 1759 
Q 1534 1759 1195 1570 
Q 856 1381 856 984 
Q 856 709 1029 553 
Q 1203 397 1509 397 
Q 1978 397 2328 733 
Q 2678 1069 2791 1631 
L 2816 1759 
z
" transform="scale(0.015625)"/>
      <path id="DejaVuSans-Oblique-445" d="M 3841 3500 
L 2234 1784 
L 3219 0 
L 2559 0 
L 1819 1388 
L 531 0 
L -166 0 
L 1556 1844 
L 641 3500 
L 1300 3500 
L 1972 2234 
L 3144 3500 
L 3841 3500 
z
" transform="scale(0.015625)"/>
      <path id="DejaVuSans-Oblique-127" d="M 3634 2113 
L 3225 0 
L 2650 0 
L 3056 2094 
Q 3094 2291 3094 2450 
Q 3094 2688 3006 2838 
Q 2863 3084 2475 3084 
Q 2009 3084 1681 2788 
Q 1356 2491 1256 1978 
L 872 0 
L 294 0 
L 1066 3969 
L 675 3969 
L 775 4481 
L 1166 4481 
L 1238 4863 
L 1816 4863 
L 1744 4481 
L 2844 4481 
L 2744 3969 
L 1644 3969 
L 1447 2956 
Q 1713 3272 2025 3428 
Q 2331 3584 2700 3584 
Q 3300 3584 3538 3213 
Q 3688 2975 3688 2606 
Q 3688 2381 3634 2113 
z
" transform="scale(0.015625)"/>
      <path id="DejaVuSans-Oblique-6d" d="M 5747 2113 
L 5338 0 
L 4763 0 
L 5166 2094 
Q 5191 2228 5203 2325 
Q 5216 2422 5216 2491 
Q 5216 2772 5059 2928 
Q 4903 3084 4622 3084 
Q 4203 3084 3875 2770 
Q 3547 2456 3450 1953 
L 3066 0 
L 2491 0 
L 2900 2094 
Q 2925 2209 2937 2307 
Q 2950 2406 2950 2484 
Q 2950 2769 2794 2926 
Q 2638 3084 2363 3084 
Q 1938 3084 1609 2770 
Q 1281 2456 1184 1953 
L 800 0 
L 225 0 
L 909 3500 
L 1484 3500 
L 1375 2956 
Q 1609 3263 1923 3423 
Q 2238 3584 2597 3584 
Q 2978 3584 3223 3384 
Q 3469 3184 3519 2828 
Q 3781 3197 4126 3390 
Q 4472 3584 4856 3584 
Q 5306 3584 5551 3325 
Q 5797 3066 5797 2591 
Q 5797 2488 5784 2364 
Q 5772 2241 5747 2113 
z
" transform="scale(0.015625)"/>
      <path id="DejaVuSans-22c5" d="M 684 2619 
L 1344 2619 
L 1344 1825 
L 684 1825 
L 684 2619 
z
" transform="scale(0.015625)"/>
      <path id="DejaVuSans-Oblique-63" d="M 3431 3366 
L 3316 2797 
Q 3109 2947 2876 3022 
Q 2644 3097 2394 3097 
Q 2119 3097 1870 3000 
Q 1622 2903 1453 2725 
Q 1184 2453 1037 2087 
Q 891 1722 891 1331 
Q 891 859 1127 628 
Q 1363 397 1844 397 
Q 2081 397 2348 469 
Q 2616 541 2906 684 
L 2797 116 
Q 2547 13 2283 -39 
Q 2019 -91 1741 -91 
Q 1044 -91 669 257 
Q 294 606 294 1253 
Q 294 1797 489 2255 
Q 684 2713 1069 3078 
Q 1331 3328 1684 3456 
Q 2038 3584 2456 3584 
Q 2700 3584 2940 3529 
Q 3181 3475 3431 3366 
z
" transform="scale(0.015625)"/>
      <path id="STIXSizeOneSym-Regular-29" d="M 550 6630 
L 550 6822 
Q 1267 6144 1686 5142 
Q 2106 4141 2106 2886 
Q 2106 1651 1686 636 
Q 1267 -378 550 -1050 
L 550 -858 
Q 1587 410 1587 2886 
Q 1587 5363 550 6630 
z
" transform="scale(0.015625)"/>
     </defs>
     <use xlink:href="#DejaVuSans-Oblique-78" transform="translate(0 0.007812)"/>
     <use xlink:href="#STIXSizeOneSym-Regular-28" transform="translate(140.357095 -11.015625)scale(1.013288)"/>
     <use xlink:href="#DejaVuSans-Oblique-432" transform="translate(187.778649 0.007812)"/>
     <use xlink:href="#DejaVuSans-Oblique-435" transform="translate(273.773332 0.007812)"/>
     <use xlink:href="#DejaVuSans-Oblique-434" transform="translate(335.296769 0.007812)"/>
     <use xlink:href="#DejaVuSans-Oblique-438" transform="translate(404.437394 0.007812)"/>
     <use xlink:href="#DejaVuSans-Oblique-43d" transform="translate(469.427629 0.007812)"/>
     <use xlink:href="#DejaVuSans-Oblique-438" transform="translate(534.808488 0.007812)"/>
     <use xlink:href="#DejaVuSans-Oblique-446" transform="translate(599.798723 0.007812)"/>
     <use xlink:href="#DejaVuSans-Oblique-430" transform="translate(667.865129 0.007812)"/>
     <use xlink:href="#DejaVuSans-Oblique-445" transform="translate(729.144426 0.007812)"/>
     <use xlink:href="#DejaVuSans-Oblique-127" transform="translate(869.383249 43.804688)scale(0.7)"/>
     <use xlink:href="#DejaVuSans-Oblique-6d" transform="translate(815.383249 -26.645312)scale(0.7)"/>
     <use xlink:href="#DejaVuSans-22c5" transform="translate(897.209421 -26.645312)scale(0.7)"/>
     <use xlink:href="#DejaVuSans-Oblique-63" transform="translate(933.098093 -26.645312)scale(0.7)"/>
     <use xlink:href="#STIXSizeOneSym-Regular-29" transform="translate(984.084421 -11.015625)scale(1.013288)"/>
     <path d="M 815.383249 18.804688 
L 815.383249 25.054688 
L 971.584421 25.054688 
L 971.584421 18.804688 
L 815.383249 18.804688 
z
"/>
    </g>
   </g>
   <g id="Line3DCollection_1">
    <path d="M 195.81784 408.210256 
L 341.487031 284.667025 
L 340.055367 107.232799 
" style="fill: none; stroke: #b0b0b0; stroke-width: 0.8"/>
    <path d="M 242.865826 423.576128 
L 386.00519 297.606697 
L 386.480286 119.000163 
" style="fill: none; stroke: #b0b0b0; stroke-width: 0.8"/>
    <path d="M 290.882826 439.25848 
L 431.363695 310.790623 
L 433.819726 130.999331 
" style="fill: none; stroke: #b0b0b0; stroke-width: 0.8"/>
    <path d="M 339.899088 455.267191 
L 477.586567 324.225788 
L 482.100978 143.237221 
" style="fill: none; stroke: #b0b0b0; stroke-width: 0.8"/>
    <path d="M 389.946135 471.612557 
L 524.698752 337.91944 
L 531.35243 155.721029 
" style="fill: none; stroke: #b0b0b0; stroke-width: 0.8"/>
   </g>
   <g id="xtick_1">
    <g id="line2d_2">
     <path d="M 197.086319 407.134449 
L 193.275439 410.366487 
" style="fill: none; stroke: #000000; stroke-width: 0.8; stroke-linecap: square"/>
    </g>
    <g id="text_2">
     <!-- 0 -->
     <g transform="translate(185.118719 431.49608)scale(0.1 -0.1)">
      <defs>
       <path id="DejaVuSans-30" d="M 2034 4250 
Q 1547 4250 1301 3770 
Q 1056 3291 1056 2328 
Q 1056 1369 1301 889 
Q 1547 409 2034 409 
Q 2525 409 2770 889 
Q 3016 1369 3016 2328 
Q 3016 3291 2770 3770 
Q 2525 4250 2034 4250 
z
M 2034 4750 
Q 2819 4750 3233 4129 
Q 3647 3509 3647 2328 
Q 3647 1150 3233 529 
Q 2819 -91 2034 -91 
Q 1250 -91 836 529 
Q 422 1150 422 2328 
Q 422 3509 836 4129 
Q 1250 4750 2034 4750 
z
" transform="scale(0.015625)"/>
      </defs>
      <use xlink:href="#DejaVuSans-30"/>
     </g>
    </g>
   </g>
   <g id="xtick_2">
    <g id="line2d_3">
     <path d="M 244.113308 422.478285 
L 240.365455 425.776573 
" style="fill: none; stroke: #000000; stroke-width: 0.8; stroke-linecap: square"/>
    </g>
    <g id="text_3">
     <!-- 2 -->
     <g transform="translate(232.19575 447.056786)scale(0.1 -0.1)">
      <defs>
       <path id="DejaVuSans-32" d="M 1228 531 
L 3431 531 
L 3431 0 
L 469 0 
L 469 531 
Q 828 903 1448 1529 
Q 2069 2156 2228 2338 
Q 2531 2678 2651 2914 
Q 2772 3150 2772 3378 
Q 2772 3750 2511 3984 
Q 2250 4219 1831 4219 
Q 1534 4219 1204 4116 
Q 875 4013 500 3803 
L 500 4441 
Q 881 4594 1212 4672 
Q 1544 4750 1819 4750 
Q 2544 4750 2975 4387 
Q 3406 4025 3406 3419 
Q 3406 3131 3298 2873 
Q 3191 2616 2906 2266 
Q 2828 2175 2409 1742 
Q 1991 1309 1228 531 
z
" transform="scale(0.015625)"/>
      </defs>
      <use xlink:href="#DejaVuSans-32"/>
     </g>
    </g>
   </g>
   <g id="xtick_3">
    <g id="line2d_4">
     <path d="M 292.108172 438.137918 
L 288.426766 441.504513 
" style="fill: none; stroke: #000000; stroke-width: 0.8; stroke-linecap: square"/>
    </g>
    <g id="text_4">
     <!-- 4 -->
     <g transform="translate(280.244597 462.938713)scale(0.1 -0.1)">
      <defs>
       <path id="DejaVuSans-34" d="M 2419 4116 
L 825 1625 
L 2419 1625 
L 2419 4116 
z
M 2253 4666 
L 3047 4666 
L 3047 1625 
L 3713 1625 
L 3713 1100 
L 3047 1100 
L 3047 0 
L 2419 0 
L 2419 1100 
L 313 1100 
L 313 1709 
L 2253 4666 
z
" transform="scale(0.015625)"/>
      </defs>
      <use xlink:href="#DejaVuSans-34"/>
     </g>
    </g>
   </g>
   <g id="xtick_4">
    <g id="line2d_5">
     <path d="M 341.101104 454.123197 
L 337.489739 457.560244 
" style="fill: none; stroke: #000000; stroke-width: 0.8; stroke-linecap: square"/>
    </g>
    <g id="text_5">
     <!-- 6 -->
     <g transform="translate(329.295666 479.151912)scale(0.1 -0.1)">
      <defs>
       <path id="DejaVuSans-36" d="M 2113 2584 
Q 1688 2584 1439 2293 
Q 1191 2003 1191 1497 
Q 1191 994 1439 701 
Q 1688 409 2113 409 
Q 2538 409 2786 701 
Q 3034 994 3034 1497 
Q 3034 2003 2786 2293 
Q 2538 2584 2113 2584 
z
M 3366 4563 
L 3366 3988 
Q 3128 4100 2886 4159 
Q 2644 4219 2406 4219 
Q 1781 4219 1451 3797 
Q 1122 3375 1075 2522 
Q 1259 2794 1537 2939 
Q 1816 3084 2150 3084 
Q 2853 3084 3261 2657 
Q 3669 2231 3669 1497 
Q 3669 778 3244 343 
Q 2819 -91 2113 -91 
Q 1303 -91 875 529 
Q 447 1150 447 2328 
Q 447 3434 972 4092 
Q 1497 4750 2381 4750 
Q 2619 4750 2861 4703 
Q 3103 4656 3366 4563 
z
" transform="scale(0.015625)"/>
      </defs>
      <use xlink:href="#DejaVuSans-36"/>
     </g>
    </g>
   </g>
   <g id="xtick_5">
    <g id="line2d_6">
     <path d="M 391.123562 470.444387 
L 387.586015 473.95412 
" style="fill: none; stroke: #000000; stroke-width: 0.8; stroke-linecap: square"/>
    </g>
    <g id="text_6">
     <!-- 8 -->
     <g transform="translate(379.380645 495.706857)scale(0.1 -0.1)">
      <defs>
       <path id="DejaVuSans-38" d="M 2034 2216 
Q 1584 2216 1326 1975 
Q 1069 1734 1069 1313 
Q 1069 891 1326 650 
Q 1584 409 2034 409 
Q 2484 409 2743 651 
Q 3003 894 3003 1313 
Q 3003 1734 2745 1975 
Q 2488 2216 2034 2216 
z
M 1403 2484 
Q 997 2584 770 2862 
Q 544 3141 544 3541 
Q 544 4100 942 4425 
Q 1341 4750 2034 4750 
Q 2731 4750 3128 4425 
Q 3525 4100 3525 3541 
Q 3525 3141 3298 2862 
Q 3072 2584 2669 2484 
Q 3125 2378 3379 2068 
Q 3634 1759 3634 1313 
Q 3634 634 3220 271 
Q 2806 -91 2034 -91 
Q 1263 -91 848 271 
Q 434 634 434 1313 
Q 434 1759 690 2068 
Q 947 2378 1403 2484 
z
M 1172 3481 
Q 1172 3119 1398 2916 
Q 1625 2713 2034 2713 
Q 2441 2713 2670 2916 
Q 2900 3119 2900 3481 
Q 2900 3844 2670 4047 
Q 2441 4250 2034 4250 
Q 1625 4250 1398 4047 
Q 1172 3844 1172 3481 
z
" transform="scale(0.015625)"/>
      </defs>
      <use xlink:href="#DejaVuSans-38"/>
     </g>
    </g>
   </g>
  </g>
  <g id="axis3d_2">
   <g id="line2d_7">
    <path d="M 562.217334 348.82461 
L 429.865448 484.650204 
" style="fill: none; stroke: #000000; stroke-width: 0.8; stroke-linecap: square"/>
   </g>
   <g id="text_7">
    <!-- $y\;\;\;\left(в\;единицах\;\frac{\hbar}{m \cdot c}\right)$ -->
    <g transform="translate(472.297386 504.675641)rotate(-45.742112)scale(0.16 -0.16)">
     <defs>
      <path id="DejaVuSans-Oblique-79" d="M 1588 -325 
Q 1188 -997 936 -1164 
Q 684 -1331 294 -1331 
L -159 -1331 
L -63 -850 
L 269 -850 
Q 509 -850 678 -719 
Q 847 -588 1056 -206 
L 1234 128 
L 459 3500 
L 1069 3500 
L 1650 819 
L 3256 3500 
L 3859 3500 
L 1588 -325 
z
" transform="scale(0.015625)"/>
     </defs>
     <use xlink:href="#DejaVuSans-Oblique-79" transform="translate(0 0.007812)"/>
     <use xlink:href="#STIXSizeOneSym-Regular-28" transform="translate(140.357095 -11.015625)scale(1.013288)"/>
     <use xlink:href="#DejaVuSans-Oblique-432" transform="translate(187.778649 0.007812)"/>
     <use xlink:href="#DejaVuSans-Oblique-435" transform="translate(273.773332 0.007812)"/>
     <use xlink:href="#DejaVuSans-Oblique-434" transform="translate(335.296769 0.007812)"/>
     <use xlink:href="#DejaVuSans-Oblique-438" transform="translate(404.437394 0.007812)"/>
     <use xlink:href="#DejaVuSans-Oblique-43d" transform="translate(469.427629 0.007812)"/>
     <use xlink:href="#DejaVuSans-Oblique-438" transform="translate(534.808488 0.007812)"/>
     <use xlink:href="#DejaVuSans-Oblique-446" transform="translate(599.798723 0.007812)"/>
     <use xlink:href="#DejaVuSans-Oblique-430" transform="translate(667.865129 0.007812)"/>
     <use xlink:href="#DejaVuSans-Oblique-445" transform="translate(729.144426 0.007812)"/>
     <use xlink:href="#DejaVuSans-Oblique-127" transform="translate(869.383249 43.804688)scale(0.7)"/>
     <use xlink:href="#DejaVuSans-Oblique-6d" transform="translate(815.383249 -26.645312)scale(0.7)"/>
     <use xlink:href="#DejaVuSans-22c5" transform="translate(897.209421 -26.645312)scale(0.7)"/>
     <use xlink:href="#DejaVuSans-Oblique-63" transform="translate(933.098093 -26.645312)scale(0.7)"/>
     <use xlink:href="#STIXSizeOneSym-Regular-29" transform="translate(984.084421 -11.015625)scale(1.013288)"/>
     <path d="M 815.383249 18.804688 
L 815.383249 25.054688 
L 971.584421 25.054688 
L 971.584421 18.804688 
L 815.383249 18.804688 
z
"/>
    </g>
   </g>
   <g id="Line3DCollection_2">
    <path d="M 182.296822 207.709945 
L 190.82148 394.822312 
L 439.023174 475.252125 
" style="fill: none; stroke: #b0b0b0; stroke-width: 0.8"/>
    <path d="M 205.789139 190.566322 
L 213.18063 376.08043 
L 459.291209 454.452135 
" style="fill: none; stroke: #b0b0b0; stroke-width: 0.8"/>
    <path d="M 228.673134 173.866625 
L 234.985778 357.802923 
L 479.030726 434.194535 
" style="fill: none; stroke: #b0b0b0; stroke-width: 0.8"/>
    <path d="M 250.972131 157.593833 
L 256.257262 339.972743 
L 498.262131 414.458382 
" style="fill: none; stroke: #b0b0b0; stroke-width: 0.8"/>
    <path d="M 272.70828 141.731781 
L 277.014437 322.573667 
L 517.004793 395.2238 
" style="fill: none; stroke: #b0b0b0; stroke-width: 0.8"/>
    <path d="M 293.902626 126.265113 
L 297.275733 305.590247 
L 535.277111 376.471906 
" style="fill: none; stroke: #b0b0b0; stroke-width: 0.8"/>
    <path d="M 314.575176 111.179227 
L 317.05871 289.007763 
L 553.09657 358.184758 
" style="fill: none; stroke: #b0b0b0; stroke-width: 0.8"/>
   </g>
   <g id="xtick_6">
    <g id="line2d_8">
     <path d="M 436.931571 474.57434 
L 443.21179 476.609446 
" style="fill: none; stroke: #000000; stroke-width: 0.8; stroke-linecap: square"/>
    </g>
    <g id="text_8">
     <!-- 0.0 -->
     <g transform="translate(443.949162 496.27064)scale(0.1 -0.1)">
      <defs>
       <path id="DejaVuSans-2e" d="M 684 794 
L 1344 794 
L 1344 0 
L 684 0 
L 684 794 
z
" transform="scale(0.015625)"/>
      </defs>
      <use xlink:href="#DejaVuSans-30"/>
      <use xlink:href="#DejaVuSans-2e" x="63.623047"/>
      <use xlink:href="#DejaVuSans-30" x="95.410156"/>
     </g>
    </g>
   </g>
   <g id="xtick_7">
    <g id="line2d_9">
     <path d="M 457.218616 453.792136 
L 463.441685 455.773817 
" style="fill: none; stroke: #000000; stroke-width: 0.8; stroke-linecap: square"/>
    </g>
    <g id="text_9">
     <!-- 0.5 -->
     <g transform="translate(464.054202 475.28593)scale(0.1 -0.1)">
      <defs>
       <path id="DejaVuSans-35" d="M 691 4666 
L 3169 4666 
L 3169 4134 
L 1269 4134 
L 1269 2991 
Q 1406 3038 1543 3061 
Q 1681 3084 1819 3084 
Q 2600 3084 3056 2656 
Q 3513 2228 3513 1497 
Q 3513 744 3044 326 
Q 2575 -91 1722 -91 
Q 1428 -91 1123 -41 
Q 819 9 494 109 
L 494 744 
Q 775 591 1075 516 
Q 1375 441 1709 441 
Q 2250 441 2565 725 
Q 2881 1009 2881 1497 
Q 2881 1984 2565 2268 
Q 2250 2553 1709 2553 
Q 1456 2553 1204 2497 
Q 953 2441 691 2322 
L 691 4666 
z
" transform="scale(0.015625)"/>
      </defs>
      <use xlink:href="#DejaVuSans-30"/>
      <use xlink:href="#DejaVuSans-2e" x="63.623047"/>
      <use xlink:href="#DejaVuSans-35" x="95.410156"/>
     </g>
    </g>
   </g>
   <g id="xtick_8">
    <g id="line2d_10">
     <path d="M 476.976868 433.551631 
L 483.143614 435.481962 
" style="fill: none; stroke: #000000; stroke-width: 0.8; stroke-linecap: square"/>
    </g>
    <g id="text_10">
     <!-- 1.0 -->
     <g transform="translate(483.63479 454.848618)scale(0.1 -0.1)">
      <defs>
       <path id="DejaVuSans-31" d="M 794 531 
L 1825 531 
L 1825 4091 
L 703 3866 
L 703 4441 
L 1819 4666 
L 2450 4666 
L 2450 531 
L 3481 531 
L 3481 0 
L 794 0 
L 794 531 
z
" transform="scale(0.015625)"/>
      </defs>
      <use xlink:href="#DejaVuSans-31"/>
      <use xlink:href="#DejaVuSans-2e" x="63.623047"/>
      <use xlink:href="#DejaVuSans-30" x="95.410156"/>
     </g>
    </g>
   </g>
   <g id="xtick_9">
    <g id="line2d_11">
     <path d="M 496.226737 413.831917 
L 502.337979 415.71287 
" style="fill: none; stroke: #000000; stroke-width: 0.8; stroke-linecap: square"/>
    </g>
    <g id="text_11">
     <!-- 1.5 -->
     <g transform="translate(502.711183 434.937561)scale(0.1 -0.1)">
      <use xlink:href="#DejaVuSans-31"/>
      <use xlink:href="#DejaVuSans-2e" x="63.623047"/>
      <use xlink:href="#DejaVuSans-35" x="95.410156"/>
     </g>
    </g>
   </g>
   <g id="xtick_10">
    <g id="line2d_12">
     <path d="M 514.987594 394.613151 
L 521.044143 396.446596 
" style="fill: none; stroke: #000000; stroke-width: 0.8; stroke-linecap: square"/>
    </g>
    <g id="text_12">
     <!-- 2.0 -->
     <g transform="translate(521.302609 415.532691)scale(0.1 -0.1)">
      <use xlink:href="#DejaVuSans-32"/>
      <use xlink:href="#DejaVuSans-2e" x="63.623047"/>
      <use xlink:href="#DejaVuSans-30" x="95.410156"/>
     </g>
    </g>
   </g>
   <g id="xtick_11">
    <g id="line2d_13">
     <path d="M 533.27784 375.876483 
L 539.280499 377.664197 
" style="fill: none; stroke: #000000; stroke-width: 0.8; stroke-linecap: square"/>
    </g>
    <g id="text_13">
     <!-- 2.5 -->
     <g transform="translate(539.427328 396.614948)scale(0.1 -0.1)">
      <use xlink:href="#DejaVuSans-32"/>
      <use xlink:href="#DejaVuSans-2e" x="63.623047"/>
      <use xlink:href="#DejaVuSans-35" x="95.410156"/>
     </g>
    </g>
   </g>
   <g id="xtick_12">
    <g id="line2d_14">
     <path d="M 551.114963 357.603997 
L 557.064527 359.347671 
" style="fill: none; stroke: #000000; stroke-width: 0.8; stroke-linecap: square"/>
    </g>
    <g id="text_14">
     <!-- 3.0 -->
     <g transform="translate(557.102696 378.166216)scale(0.1 -0.1)">
      <defs>
       <path id="DejaVuSans-33" d="M 2597 2516 
Q 3050 2419 3304 2112 
Q 3559 1806 3559 1356 
Q 3559 666 3084 287 
Q 2609 -91 1734 -91 
Q 1441 -91 1130 -33 
Q 819 25 488 141 
L 488 750 
Q 750 597 1062 519 
Q 1375 441 1716 441 
Q 2309 441 2620 675 
Q 2931 909 2931 1356 
Q 2931 1769 2642 2001 
Q 2353 2234 1838 2234 
L 1294 2234 
L 1294 2753 
L 1863 2753 
Q 2328 2753 2575 2939 
Q 2822 3125 2822 3475 
Q 2822 3834 2567 4026 
Q 2313 4219 1838 4219 
Q 1578 4219 1281 4162 
Q 984 4106 628 3988 
L 628 4550 
Q 988 4650 1302 4700 
Q 1616 4750 1894 4750 
Q 2613 4750 3031 4423 
Q 3450 4097 3450 3541 
Q 3450 3153 3228 2886 
Q 3006 2619 2597 2516 
z
" transform="scale(0.015625)"/>
      </defs>
      <use xlink:href="#DejaVuSans-33"/>
      <use xlink:href="#DejaVuSans-2e" x="63.623047"/>
      <use xlink:href="#DejaVuSans-30" x="95.410156"/>
     </g>
    </g>
   </g>
  </g>
  <g id="axis3d_3">
   <g id="line2d_15">
    <path d="M 562.217334 348.82461 
L 570.604503 165.670285 
" style="fill: none; stroke: #000000; stroke-width: 0.8; stroke-linecap: square"/>
   </g>
   <g id="text_15">
    <!-- $z\;\;\;\left(в\;единицах\;\frac{\hbar}{m \cdot c}\right)$ -->
    <g transform="translate(608.565447 335.996667)rotate(-87.378092)scale(0.16 -0.16)">
     <defs>
      <path id="DejaVuSans-Oblique-7a" d="M 744 3500 
L 3475 3500 
L 3372 2975 
L 738 459 
L 2913 459 
L 2822 0 
L -19 0 
L 84 525 
L 2719 3041 
L 653 3041 
L 744 3500 
z
" transform="scale(0.015625)"/>
     </defs>
     <use xlink:href="#DejaVuSans-Oblique-7a" transform="translate(0 0.007812)"/>
     <use xlink:href="#STIXSizeOneSym-Regular-28" transform="translate(133.667642 -11.015625)scale(1.013288)"/>
     <use xlink:href="#DejaVuSans-Oblique-432" transform="translate(181.089196 0.007812)"/>
     <use xlink:href="#DejaVuSans-Oblique-435" transform="translate(267.083879 0.007812)"/>
     <use xlink:href="#DejaVuSans-Oblique-434" transform="translate(328.607316 0.007812)"/>
     <use xlink:href="#DejaVuSans-Oblique-438" transform="translate(397.747941 0.007812)"/>
     <use xlink:href="#DejaVuSans-Oblique-43d" transform="translate(462.738176 0.007812)"/>
     <use xlink:href="#DejaVuSans-Oblique-438" transform="translate(528.119035 0.007812)"/>
     <use xlink:href="#DejaVuSans-Oblique-446" transform="translate(593.109269 0.007812)"/>
     <use xlink:href="#DejaVuSans-Oblique-430" transform="translate(661.175676 0.007812)"/>
     <use xlink:href="#DejaVuSans-Oblique-445" transform="translate(722.454973 0.007812)"/>
     <use xlink:href="#DejaVuSans-Oblique-127" transform="translate(862.693796 43.804688)scale(0.7)"/>
     <use xlink:href="#DejaVuSans-Oblique-6d" transform="translate(808.693796 -26.645312)scale(0.7)"/>
     <use xlink:href="#DejaVuSans-22c5" transform="translate(890.519968 -26.645312)scale(0.7)"/>
     <use xlink:href="#DejaVuSans-Oblique-63" transform="translate(926.40864 -26.645312)scale(0.7)"/>
     <use xlink:href="#STIXSizeOneSym-Regular-29" transform="translate(977.394968 -11.015625)scale(1.013288)"/>
     <path d="M 808.693796 18.804688 
L 808.693796 25.054688 
L 964.894968 25.054688 
L 964.894968 18.804688 
L 808.693796 18.804688 
z
"/>
    </g>
   </g>
   <g id="Line3DCollection_3">
    <path d="M 562.378023 345.315576 
L 327.154519 277.113266 
L 180.555811 399.689565 
" style="fill: none; stroke: #b0b0b0; stroke-width: 0.8"/>
    <path d="M 563.785503 314.579811 
L 326.812278 247.351084 
L 179.039953 368.211786 
" style="fill: none; stroke: #b0b0b0; stroke-width: 0.8"/>
    <path d="M 565.214287 283.378827 
L 326.465104 217.159994 
L 177.500273 336.239341 
" style="fill: none; stroke: #b0b0b0; stroke-width: 0.8"/>
    <path d="M 566.664861 251.701982 
L 326.112891 186.530658 
L 175.936206 303.760479 
" style="fill: none; stroke: #b0b0b0; stroke-width: 0.8"/>
    <path d="M 568.13773 219.538306 
L 325.755528 155.453464 
L 174.347168 270.763071 
" style="fill: none; stroke: #b0b0b0; stroke-width: 0.8"/>
    <path d="M 569.633409 186.876488 
L 325.392902 123.918517 
L 172.732556 237.234599 
" style="fill: none; stroke: #b0b0b0; stroke-width: 0.8"/>
   </g>
   <g id="xtick_13">
    <g id="line2d_16">
     <path d="M 560.403771 344.743148 
L 566.331227 346.461795 
" style="fill: none; stroke: #000000; stroke-width: 0.8; stroke-linecap: square"/>
    </g>
    <g id="text_16">
     <!-- 0.0 -->
     <g transform="translate(572.712375 350.309979)scale(0.1 -0.1)">
      <use xlink:href="#DejaVuSans-30"/>
      <use xlink:href="#DejaVuSans-2e" x="63.623047"/>
      <use xlink:href="#DejaVuSans-30" x="95.410156"/>
     </g>
    </g>
   </g>
   <g id="xtick_14">
    <g id="line2d_17">
     <path d="M 561.795866 314.015356 
L 567.769549 315.710075 
" style="fill: none; stroke: #000000; stroke-width: 0.8; stroke-linecap: square"/>
    </g>
    <g id="text_17">
     <!-- 0.5 -->
     <g transform="translate(574.254398 319.610511)scale(0.1 -0.1)">
      <use xlink:href="#DejaVuSans-30"/>
      <use xlink:href="#DejaVuSans-2e" x="63.623047"/>
      <use xlink:href="#DejaVuSans-35" x="95.410156"/>
     </g>
    </g>
   </g>
   <g id="xtick_15">
    <g id="line2d_18">
     <path d="M 563.209023 282.822653 
L 569.22966 284.49252 
" style="fill: none; stroke: #000000; stroke-width: 0.8; stroke-linecap: square"/>
    </g>
    <g id="text_18">
     <!-- 1.0 -->
     <g transform="translate(575.819719 288.447224)scale(0.1 -0.1)">
      <use xlink:href="#DejaVuSans-31"/>
      <use xlink:href="#DejaVuSans-2e" x="63.623047"/>
      <use xlink:href="#DejaVuSans-30" x="95.410156"/>
     </g>
    </g>
   </g>
   <g id="xtick_16">
    <g id="line2d_19">
     <path d="M 564.643724 251.154408 
L 570.712057 252.798465 
" style="fill: none; stroke: #000000; stroke-width: 0.8; stroke-linecap: square"/>
    </g>
    <g id="text_19">
     <!-- 1.5 -->
     <g transform="translate(577.408869 256.809527)scale(0.1 -0.1)">
      <use xlink:href="#DejaVuSans-31"/>
      <use xlink:href="#DejaVuSans-2e" x="63.623047"/>
      <use xlink:href="#DejaVuSans-35" x="95.410156"/>
     </g>
    </g>
   </g>
   <g id="xtick_17">
    <g id="line2d_20">
     <path d="M 566.100466 218.999662 
L 572.217255 220.616916 
" style="fill: none; stroke: #000000; stroke-width: 0.8; stroke-linecap: square"/>
    </g>
    <g id="text_20">
     <!-- 2.0 -->
     <g transform="translate(579.022396 224.686503)scale(0.1 -0.1)">
      <use xlink:href="#DejaVuSans-32"/>
      <use xlink:href="#DejaVuSans-2e" x="63.623047"/>
      <use xlink:href="#DejaVuSans-30" x="95.410156"/>
     </g>
    </g>
   </g>
   <g id="xtick_18">
    <g id="line2d_21">
     <path d="M 567.57976 186.347119 
L 573.745784 187.936537 
" style="fill: none; stroke: #000000; stroke-width: 0.8; stroke-linecap: square"/>
    </g>
    <g id="text_21">
     <!-- 2.5 -->
     <g transform="translate(580.660867 192.0669)scale(0.1 -0.1)">
      <use xlink:href="#DejaVuSans-32"/>
      <use xlink:href="#DejaVuSans-2e" x="63.623047"/>
      <use xlink:href="#DejaVuSans-35" x="95.410156"/>
     </g>
    </g>
   </g>
  </g>
  <g id="axes_1">
   <g id="line2d_22">
    <path d="M 205.707915 396.107741 
L 208.105468 392.90381 
L 211.029059 389.383622 
L 214.467151 385.607698 
L 218.392827 381.624895 
L 222.979586 377.287332 
L 228.396458 372.476636 
L 234.603114 367.262045 
L 241.958626 361.383782 
L 250.215172 355.078879 
L 259.711134 348.115256 
L 270.758506 340.295601 
L 283.281598 331.708463 
L 297.573816 322.180307 
L 313.552309 311.802528 
L 332.016503 300.084237 
L 353.876905 286.481864 
L 379.477213 270.821631 
L 408.176376 253.529405 
L 441.489127 233.724963 
L 484.011164 208.719645 
L 545.967377 172.556036 
L 545.967377 172.556036 
" clip-path="url(#p9e88d2b45d)" style="fill: none; stroke: #800080; stroke-width: 1.5; stroke-linecap: square"/>
   </g>
   <g id="text_22">
    <!-- $Движение\;частицы\;в\;3D$ -->
    <g transform="translate(292.92 63.12)scale(0.12 -0.12)">
     <defs>
      <path id="DejaVuSans-Oblique-414" d="M 1206 531 
L 3269 531 
L 3969 4134 
L 2453 4134 
L 2325 3472 
Q 2022 1913 1472 878 
Q 1356 666 1206 531 
z
M 284 531 
Q 741 728 934 1103 
Q 1425 2066 1756 3784 
L 1928 4666 
L 4703 4666 
L 3900 531 
L 4431 531 
L 4134 -1003 
L 3603 -1003 
L 3797 0 
L 491 0 
L 297 -1003 
L -234 -1003 
L 63 531 
L 284 531 
z
" transform="scale(0.015625)"/>
      <path id="DejaVuSans-Oblique-436" d="M 2938 3500 
L 3509 3500 
L 3191 1856 
L 5038 3500 
L 5706 3500 
L 4188 2153 
L 5206 0 
L 4591 0 
L 3756 1769 
L 3050 1141 
L 2828 0 
L 2256 0 
L 2478 1141 
L 2016 1769 
L 494 0 
L -122 0 
L 1734 2153 
L 741 3500 
L 1409 3500 
L 2619 1856 
L 2938 3500 
z
" transform="scale(0.015625)"/>
      <path id="DejaVuSans-Oblique-447" d="M 2966 3500 
L 3541 3500 
L 2859 0 
L 2284 0 
L 2572 1472 
L 1500 1472 
Q 1022 1472 759 1769 
Q 600 1950 600 2272 
Q 600 2425 638 2613 
L 809 3500 
L 1384 3500 
L 1222 2666 
Q 1197 2534 1197 2425 
Q 1197 1931 1731 1931 
L 2659 1931 
L 2966 3500 
z
" transform="scale(0.015625)"/>
      <path id="DejaVuSans-Oblique-441" d="M 3431 3366 
L 3316 2797 
Q 3109 2947 2876 3022 
Q 2644 3097 2394 3097 
Q 2119 3097 1870 3000 
Q 1622 2903 1453 2725 
Q 1184 2453 1037 2087 
Q 891 1722 891 1331 
Q 891 859 1127 628 
Q 1363 397 1844 397 
Q 2081 397 2348 469 
Q 2616 541 2906 684 
L 2797 116 
Q 2547 13 2283 -39 
Q 2019 -91 1741 -91 
Q 1044 -91 669 257 
Q 294 606 294 1253 
Q 294 1797 489 2255 
Q 684 2713 1069 3078 
Q 1331 3328 1684 3456 
Q 2038 3584 2456 3584 
Q 2700 3584 2940 3529 
Q 3181 3475 3431 3366 
z
" transform="scale(0.015625)"/>
      <path id="DejaVuSans-Oblique-442" d="M 528 3500 
L 3881 3500 
L 3791 3041 
L 2397 3041 
L 1806 0 
L 1241 0 
L 1831 3041 
L 438 3041 
L 528 3500 
z
" transform="scale(0.015625)"/>
      <path id="DejaVuSans-Oblique-44b" d="M 2656 1159 
Q 2656 1613 1950 1613 
L 1131 1613 
L 909 459 
L 1728 459 
Q 2528 459 2644 1038 
Q 2656 1103 2656 1159 
z
M 2066 2072 
Q 3281 2072 3281 1278 
Q 3281 1166 3256 1038 
Q 3053 0 1663 0 
L 241 0 
L 922 3500 
L 1500 3500 
L 1222 2072 
L 2066 2072 
z
M 4216 3500 
L 4791 3500 
L 4106 0 
L 3531 0 
L 4216 3500 
z
" transform="scale(0.015625)"/>
      <path id="DejaVuSans-Oblique-44" d="M 1081 4666 
L 2438 4666 
Q 3519 4666 4070 4208 
Q 4622 3750 4622 2847 
Q 4622 2250 4412 1698 
Q 4203 1147 3834 769 
Q 3463 381 2891 190 
Q 2319 0 1538 0 
L 172 0 
L 1081 4666 
z
M 1613 4147 
L 909 519 
L 1734 519 
Q 2794 519 3375 1128 
Q 3956 1738 3956 2847 
Q 3956 3519 3581 3833 
Q 3206 4147 2406 4147 
L 1613 4147 
z
" transform="scale(0.015625)"/>
     </defs>
     <use xlink:href="#DejaVuSans-Oblique-414" transform="translate(0 0.78125)"/>
     <use xlink:href="#DejaVuSans-Oblique-432" transform="translate(78.125 0.78125)"/>
     <use xlink:href="#DejaVuSans-Oblique-438" transform="translate(137.060547 0.78125)"/>
     <use xlink:href="#DejaVuSans-Oblique-436" transform="translate(202.050781 0.78125)"/>
     <use xlink:href="#DejaVuSans-Oblique-435" transform="translate(292.138672 0.78125)"/>
     <use xlink:href="#DejaVuSans-Oblique-43d" transform="translate(353.662109 0.78125)"/>
     <use xlink:href="#DejaVuSans-Oblique-438" transform="translate(419.042969 0.78125)"/>
     <use xlink:href="#DejaVuSans-Oblique-435" transform="translate(484.033203 0.78125)"/>
     <use xlink:href="#DejaVuSans-Oblique-447" transform="translate(572.615776 0.78125)"/>
     <use xlink:href="#DejaVuSans-Oblique-430" transform="translate(631.697808 0.78125)"/>
     <use xlink:href="#DejaVuSans-Oblique-441" transform="translate(692.977104 0.78125)"/>
     <use xlink:href="#DejaVuSans-Oblique-442" transform="translate(747.957573 0.78125)"/>
     <use xlink:href="#DejaVuSans-Oblique-438" transform="translate(806.209526 0.78125)"/>
     <use xlink:href="#DejaVuSans-Oblique-446" transform="translate(871.199761 0.78125)"/>
     <use xlink:href="#DejaVuSans-Oblique-44b" transform="translate(939.266167 0.78125)"/>
     <use xlink:href="#DejaVuSans-Oblique-432" transform="translate(1045.280381 0.78125)"/>
     <use xlink:href="#DejaVuSans-33" transform="translate(1131.275063 0.78125)"/>
     <use xlink:href="#DejaVuSans-Oblique-44" transform="translate(1190.39811 0.78125)"/>
    </g>
   </g>
  </g>
 </g>
 <defs>
  <clipPath id="p9e88d2b45d">
   <rect x="147.24" y="69.12" width="443.52" height="443.52"/>
  </clipPath>
 </defs>
</svg>
