<?xml version="1.0" encoding="utf-8" standalone="no"?>
<!DOCTYPE svg PUBLIC "-//W3C//DTD SVG 1.1//EN"
  "http://www.w3.org/Graphics/SVG/1.1/DTD/svg11.dtd">
<svg xmlns:xlink="http://www.w3.org/1999/xlink" width="720pt" height="576pt" viewBox="0 0 720 576" xmlns="http://www.w3.org/2000/svg" version="1.1">
 <metadata>
  <rdf:RDF xmlns:dc="http://purl.org/dc/elements/1.1/" xmlns:cc="http://creativecommons.org/ns#" xmlns:rdf="http://www.w3.org/1999/02/22-rdf-syntax-ns#">
   <cc:Work>
    <dc:type rdf:resource="http://purl.org/dc/dcmitype/StillImage"/>
    <dc:date>2022-12-08T14:34:13.283283</dc:date>
    <dc:format>image/svg+xml</dc:format>
    <dc:creator>
     <cc:Agent>
      <dc:title>Matplotlib v3.5.1, https://matplotlib.org/</dc:title>
     </cc:Agent>
    </dc:creator>
   </cc:Work>
  </rdf:RDF>
 </metadata>
 <defs>
  <style type="text/css">*{stroke-linejoin: round; stroke-linecap: butt}</style>
 </defs>
 <g id="figure_1">
  <g id="patch_1">
   <path d="M 0 576 
L 720 576 
L 720 0 
L 0 0 
z
" style="fill: #ffffff"/>
  </g>
  <g id="axes_1">
   <g id="patch_2">
    <path d="M 90 512.64 
L 648 512.64 
L 648 69.12 
L 90 69.12 
z
" style="fill: #ffffff"/>
   </g>
   <g id="matplotlib.axis_1">
    <g id="xtick_1">
     <g id="line2d_1">
      <path d="M 115.363636 512.64 
L 115.363636 69.12 
" clip-path="url(#p6429786a45)" style="fill: none; stroke: #b0b0b0; stroke-width: 0.8; stroke-linecap: square"/>
     </g>
     <g id="line2d_2">
      <defs>
       <path id="m6bc9c6a7cc" d="M 0 0 
L 0 3.5 
" style="stroke: #000000; stroke-width: 0.8"/>
      </defs>
      <g>
       <use xlink:href="#m6bc9c6a7cc" x="115.363636" y="512.64" style="stroke: #000000; stroke-width: 0.8"/>
      </g>
     </g>
     <g id="text_1">
      <!-- 0 -->
      <g transform="translate(112.182386 527.238438)scale(0.1 -0.1)">
       <defs>
        <path id="DejaVuSans-30" d="M 2034 4250 
Q 1547 4250 1301 3770 
Q 1056 3291 1056 2328 
Q 1056 1369 1301 889 
Q 1547 409 2034 409 
Q 2525 409 2770 889 
Q 3016 1369 3016 2328 
Q 3016 3291 2770 3770 
Q 2525 4250 2034 4250 
z
M 2034 4750 
Q 2819 4750 3233 4129 
Q 3647 3509 3647 2328 
Q 3647 1150 3233 529 
Q 2819 -91 2034 -91 
Q 1250 -91 836 529 
Q 422 1150 422 2328 
Q 422 3509 836 4129 
Q 1250 4750 2034 4750 
z
" transform="scale(0.015625)"/>
       </defs>
       <use xlink:href="#DejaVuSans-30"/>
      </g>
     </g>
    </g>
    <g id="xtick_2">
     <g id="line2d_3">
      <path d="M 216.818182 512.64 
L 216.818182 69.12 
" clip-path="url(#p6429786a45)" style="fill: none; stroke: #b0b0b0; stroke-width: 0.8; stroke-linecap: square"/>
     </g>
     <g id="line2d_4">
      <g>
       <use xlink:href="#m6bc9c6a7cc" x="216.818182" y="512.64" style="stroke: #000000; stroke-width: 0.8"/>
      </g>
     </g>
     <g id="text_2">
      <!-- 2 -->
      <g transform="translate(213.636932 527.238438)scale(0.1 -0.1)">
       <defs>
        <path id="DejaVuSans-32" d="M 1228 531 
L 3431 531 
L 3431 0 
L 469 0 
L 469 531 
Q 828 903 1448 1529 
Q 2069 2156 2228 2338 
Q 2531 2678 2651 2914 
Q 2772 3150 2772 3378 
Q 2772 3750 2511 3984 
Q 2250 4219 1831 4219 
Q 1534 4219 1204 4116 
Q 875 4013 500 3803 
L 500 4441 
Q 881 4594 1212 4672 
Q 1544 4750 1819 4750 
Q 2544 4750 2975 4387 
Q 3406 4025 3406 3419 
Q 3406 3131 3298 2873 
Q 3191 2616 2906 2266 
Q 2828 2175 2409 1742 
Q 1991 1309 1228 531 
z
" transform="scale(0.015625)"/>
       </defs>
       <use xlink:href="#DejaVuSans-32"/>
      </g>
     </g>
    </g>
    <g id="xtick_3">
     <g id="line2d_5">
      <path d="M 318.272727 512.64 
L 318.272727 69.12 
" clip-path="url(#p6429786a45)" style="fill: none; stroke: #b0b0b0; stroke-width: 0.8; stroke-linecap: square"/>
     </g>
     <g id="line2d_6">
      <g>
       <use xlink:href="#m6bc9c6a7cc" x="318.272727" y="512.64" style="stroke: #000000; stroke-width: 0.8"/>
      </g>
     </g>
     <g id="text_3">
      <!-- 4 -->
      <g transform="translate(315.091477 527.238438)scale(0.1 -0.1)">
       <defs>
        <path id="DejaVuSans-34" d="M 2419 4116 
L 825 1625 
L 2419 1625 
L 2419 4116 
z
M 2253 4666 
L 3047 4666 
L 3047 1625 
L 3713 1625 
L 3713 1100 
L 3047 1100 
L 3047 0 
L 2419 0 
L 2419 1100 
L 313 1100 
L 313 1709 
L 2253 4666 
z
" transform="scale(0.015625)"/>
       </defs>
       <use xlink:href="#DejaVuSans-34"/>
      </g>
     </g>
    </g>
    <g id="xtick_4">
     <g id="line2d_7">
      <path d="M 419.727273 512.64 
L 419.727273 69.12 
" clip-path="url(#p6429786a45)" style="fill: none; stroke: #b0b0b0; stroke-width: 0.8; stroke-linecap: square"/>
     </g>
     <g id="line2d_8">
      <g>
       <use xlink:href="#m6bc9c6a7cc" x="419.727273" y="512.64" style="stroke: #000000; stroke-width: 0.8"/>
      </g>
     </g>
     <g id="text_4">
      <!-- 6 -->
      <g transform="translate(416.546023 527.238438)scale(0.1 -0.1)">
       <defs>
        <path id="DejaVuSans-36" d="M 2113 2584 
Q 1688 2584 1439 2293 
Q 1191 2003 1191 1497 
Q 1191 994 1439 701 
Q 1688 409 2113 409 
Q 2538 409 2786 701 
Q 3034 994 3034 1497 
Q 3034 2003 2786 2293 
Q 2538 2584 2113 2584 
z
M 3366 4563 
L 3366 3988 
Q 3128 4100 2886 4159 
Q 2644 4219 2406 4219 
Q 1781 4219 1451 3797 
Q 1122 3375 1075 2522 
Q 1259 2794 1537 2939 
Q 1816 3084 2150 3084 
Q 2853 3084 3261 2657 
Q 3669 2231 3669 1497 
Q 3669 778 3244 343 
Q 2819 -91 2113 -91 
Q 1303 -91 875 529 
Q 447 1150 447 2328 
Q 447 3434 972 4092 
Q 1497 4750 2381 4750 
Q 2619 4750 2861 4703 
Q 3103 4656 3366 4563 
z
" transform="scale(0.015625)"/>
       </defs>
       <use xlink:href="#DejaVuSans-36"/>
      </g>
     </g>
    </g>
    <g id="xtick_5">
     <g id="line2d_9">
      <path d="M 521.181818 512.64 
L 521.181818 69.12 
" clip-path="url(#p6429786a45)" style="fill: none; stroke: #b0b0b0; stroke-width: 0.8; stroke-linecap: square"/>
     </g>
     <g id="line2d_10">
      <g>
       <use xlink:href="#m6bc9c6a7cc" x="521.181818" y="512.64" style="stroke: #000000; stroke-width: 0.8"/>
      </g>
     </g>
     <g id="text_5">
      <!-- 8 -->
      <g transform="translate(518.000568 527.238438)scale(0.1 -0.1)">
       <defs>
        <path id="DejaVuSans-38" d="M 2034 2216 
Q 1584 2216 1326 1975 
Q 1069 1734 1069 1313 
Q 1069 891 1326 650 
Q 1584 409 2034 409 
Q 2484 409 2743 651 
Q 3003 894 3003 1313 
Q 3003 1734 2745 1975 
Q 2488 2216 2034 2216 
z
M 1403 2484 
Q 997 2584 770 2862 
Q 544 3141 544 3541 
Q 544 4100 942 4425 
Q 1341 4750 2034 4750 
Q 2731 4750 3128 4425 
Q 3525 4100 3525 3541 
Q 3525 3141 3298 2862 
Q 3072 2584 2669 2484 
Q 3125 2378 3379 2068 
Q 3634 1759 3634 1313 
Q 3634 634 3220 271 
Q 2806 -91 2034 -91 
Q 1263 -91 848 271 
Q 434 634 434 1313 
Q 434 1759 690 2068 
Q 947 2378 1403 2484 
z
M 1172 3481 
Q 1172 3119 1398 2916 
Q 1625 2713 2034 2713 
Q 2441 2713 2670 2916 
Q 2900 3119 2900 3481 
Q 2900 3844 2670 4047 
Q 2441 4250 2034 4250 
Q 1625 4250 1398 4047 
Q 1172 3844 1172 3481 
z
" transform="scale(0.015625)"/>
       </defs>
       <use xlink:href="#DejaVuSans-38"/>
      </g>
     </g>
    </g>
    <g id="xtick_6">
     <g id="line2d_11">
      <path d="M 622.636364 512.64 
L 622.636364 69.12 
" clip-path="url(#p6429786a45)" style="fill: none; stroke: #b0b0b0; stroke-width: 0.8; stroke-linecap: square"/>
     </g>
     <g id="line2d_12">
      <g>
       <use xlink:href="#m6bc9c6a7cc" x="622.636364" y="512.64" style="stroke: #000000; stroke-width: 0.8"/>
      </g>
     </g>
     <g id="text_6">
      <!-- 10 -->
      <g transform="translate(616.273864 527.238438)scale(0.1 -0.1)">
       <defs>
        <path id="DejaVuSans-31" d="M 794 531 
L 1825 531 
L 1825 4091 
L 703 3866 
L 703 4441 
L 1819 4666 
L 2450 4666 
L 2450 531 
L 3481 531 
L 3481 0 
L 794 0 
L 794 531 
z
" transform="scale(0.015625)"/>
       </defs>
       <use xlink:href="#DejaVuSans-31"/>
       <use xlink:href="#DejaVuSans-30" x="63.623047"/>
      </g>
     </g>
    </g>
    <g id="text_7">
     <!-- $t\;\;\;\left(в\;единицах\;\frac{\hbar}{m \cdot c^2}\right)$ -->
     <g transform="translate(285 548.838125)scale(0.16 -0.16)">
      <defs>
       <path id="DejaVuSans-Oblique-74" d="M 2706 3500 
L 2619 3053 
L 1472 3053 
L 1100 1153 
Q 1081 1047 1072 975 
Q 1063 903 1063 863 
Q 1063 663 1183 572 
Q 1303 481 1569 481 
L 2150 481 
L 2053 0 
L 1503 0 
Q 991 0 739 200 
Q 488 400 488 806 
Q 488 878 497 964 
Q 506 1050 525 1153 
L 897 3053 
L 409 3053 
L 500 3500 
L 978 3500 
L 1172 4494 
L 1747 4494 
L 1556 3500 
L 2706 3500 
z
" transform="scale(0.015625)"/>
       <path id="STIXSizeTwoSym-Regular-28" d="M 3219 -1555 
L 3219 -1786 
Q 2144 -774 1517 730 
Q 890 2234 890 4115 
Q 890 6003 1533 7593 
Q 2176 9184 3219 10022 
L 3219 9811 
Q 2490 9062 1994 7606 
Q 1498 6150 1498 4115 
Q 1498 563 3219 -1555 
z
" transform="scale(0.015625)"/>
       <path id="DejaVuSans-Oblique-432" d="M 2656 1159 
Q 2656 1613 1947 1613 
L 1128 1613 
L 906 459 
L 1725 459 
Q 2528 459 2644 1038 
Q 2656 1103 2656 1159 
z
M 1406 3041 
L 1219 2072 
L 1975 2072 
Q 2300 2072 2559 2217 
Q 2819 2363 2819 2647 
Q 2819 2819 2653 2930 
Q 2488 3041 2163 3041 
L 1406 3041 
z
M 922 3500 
L 2291 3500 
Q 2906 3500 3162 3300 
Q 3419 3100 3419 2809 
Q 3419 2725 3400 2634 
Q 3275 1981 2588 1888 
Q 2969 1813 3141 1575 
Q 3263 1406 3263 1175 
Q 3263 1084 3244 981 
Q 3153 513 2742 256 
Q 2331 0 1663 0 
L 241 0 
L 922 3500 
z
" transform="scale(0.015625)"/>
       <path id="DejaVuSans-Oblique-435" d="M 3078 2063 
Q 3088 2113 3092 2166 
Q 3097 2219 3097 2272 
Q 3097 2653 2873 2875 
Q 2650 3097 2266 3097 
Q 1838 3097 1509 2826 
Q 1181 2556 1013 2059 
L 3078 2063 
z
M 3578 1613 
L 903 1613 
Q 884 1494 878 1425 
Q 872 1356 872 1306 
Q 872 872 1139 634 
Q 1406 397 1894 397 
Q 2269 397 2603 481 
Q 2938 566 3225 728 
L 3116 159 
Q 2806 34 2476 -28 
Q 2147 -91 1806 -91 
Q 1078 -91 686 257 
Q 294 606 294 1247 
Q 294 1794 489 2264 
Q 684 2734 1063 3103 
Q 1306 3334 1642 3459 
Q 1978 3584 2356 3584 
Q 2950 3584 3301 3228 
Q 3653 2872 3653 2272 
Q 3653 2128 3634 1964 
Q 3616 1800 3578 1613 
z
" transform="scale(0.015625)"/>
       <path id="DejaVuSans-Oblique-434" d="M 1219 459 
L 2888 459 
L 3391 3041 
L 2181 3041 
L 2097 2603 
Q 1844 1316 1344 628 
L 1219 459 
z
M 384 459 
Q 694 584 872 850 
Q 1306 1509 1563 2838 
L 1691 3500 
L 4056 3500 
L 3466 459 
L 3925 459 
L 3666 -884 
L 3206 -884 
L 3378 0 
L 541 0 
L 369 -884 
L -91 -884 
L 169 459 
L 384 459 
z
" transform="scale(0.015625)"/>
       <path id="DejaVuSans-Oblique-438" d="M 3919 3500 
L 3238 0 
L 2666 0 
L 3213 2809 
L 978 0 
L 241 0 
L 922 3500 
L 1494 3500 
L 947 697 
L 3178 3500 
L 3919 3500 
z
" transform="scale(0.015625)"/>
       <path id="DejaVuSans-Oblique-43d" d="M 922 3500 
L 1500 3500 
L 1222 2072 
L 3088 2072 
L 3366 3500 
L 3944 3500 
L 3263 0 
L 2684 0 
L 2997 1613 
L 1131 1613 
L 819 0 
L 241 0 
L 922 3500 
z
" transform="scale(0.015625)"/>
       <path id="DejaVuSans-Oblique-446" d="M 3350 0 
L 328 0 
L 1006 3500 
L 1584 3500 
L 994 459 
L 2859 459 
L 3450 3500 
L 4028 3500 
L 3438 459 
L 3897 459 
L 3638 -884 
L 3178 -884 
L 3350 0 
z
" transform="scale(0.015625)"/>
       <path id="DejaVuSans-Oblique-430" d="M 3438 1997 
L 3047 0 
L 2472 0 
L 2578 531 
Q 2325 219 2001 64 
Q 1678 -91 1281 -91 
Q 834 -91 548 182 
Q 263 456 263 884 
Q 263 1497 752 1853 
Q 1241 2209 2100 2209 
L 2900 2209 
L 2931 2363 
Q 2938 2388 2941 2417 
Q 2944 2447 2944 2509 
Q 2944 2788 2717 2942 
Q 2491 3097 2081 3097 
Q 1800 3097 1504 3025 
Q 1209 2953 897 2809 
L 997 3341 
Q 1322 3463 1633 3523 
Q 1944 3584 2234 3584 
Q 2853 3584 3176 3315 
Q 3500 3047 3500 2534 
Q 3500 2431 3484 2292 
Q 3469 2153 3438 1997 
z
M 2816 1759 
L 2241 1759 
Q 1534 1759 1195 1570 
Q 856 1381 856 984 
Q 856 709 1029 553 
Q 1203 397 1509 397 
Q 1978 397 2328 733 
Q 2678 1069 2791 1631 
L 2816 1759 
z
" transform="scale(0.015625)"/>
       <path id="DejaVuSans-Oblique-445" d="M 3841 3500 
L 2234 1784 
L 3219 0 
L 2559 0 
L 1819 1388 
L 531 0 
L -166 0 
L 1556 1844 
L 641 3500 
L 1300 3500 
L 1972 2234 
L 3144 3500 
L 3841 3500 
z
" transform="scale(0.015625)"/>
       <path id="DejaVuSans-Oblique-127" d="M 3634 2113 
L 3225 0 
L 2650 0 
L 3056 2094 
Q 3094 2291 3094 2450 
Q 3094 2688 3006 2838 
Q 2863 3084 2475 3084 
Q 2009 3084 1681 2788 
Q 1356 2491 1256 1978 
L 872 0 
L 294 0 
L 1066 3969 
L 675 3969 
L 775 4481 
L 1166 4481 
L 1238 4863 
L 1816 4863 
L 1744 4481 
L 2844 4481 
L 2744 3969 
L 1644 3969 
L 1447 2956 
Q 1713 3272 2025 3428 
Q 2331 3584 2700 3584 
Q 3300 3584 3538 3213 
Q 3688 2975 3688 2606 
Q 3688 2381 3634 2113 
z
" transform="scale(0.015625)"/>
       <path id="DejaVuSans-Oblique-6d" d="M 5747 2113 
L 5338 0 
L 4763 0 
L 5166 2094 
Q 5191 2228 5203 2325 
Q 5216 2422 5216 2491 
Q 5216 2772 5059 2928 
Q 4903 3084 4622 3084 
Q 4203 3084 3875 2770 
Q 3547 2456 3450 1953 
L 3066 0 
L 2491 0 
L 2900 2094 
Q 2925 2209 2937 2307 
Q 2950 2406 2950 2484 
Q 2950 2769 2794 2926 
Q 2638 3084 2363 3084 
Q 1938 3084 1609 2770 
Q 1281 2456 1184 1953 
L 800 0 
L 225 0 
L 909 3500 
L 1484 3500 
L 1375 2956 
Q 1609 3263 1923 3423 
Q 2238 3584 2597 3584 
Q 2978 3584 3223 3384 
Q 3469 3184 3519 2828 
Q 3781 3197 4126 3390 
Q 4472 3584 4856 3584 
Q 5306 3584 5551 3325 
Q 5797 3066 5797 2591 
Q 5797 2488 5784 2364 
Q 5772 2241 5747 2113 
z
" transform="scale(0.015625)"/>
       <path id="DejaVuSans-22c5" d="M 684 2619 
L 1344 2619 
L 1344 1825 
L 684 1825 
L 684 2619 
z
" transform="scale(0.015625)"/>
       <path id="DejaVuSans-Oblique-63" d="M 3431 3366 
L 3316 2797 
Q 3109 2947 2876 3022 
Q 2644 3097 2394 3097 
Q 2119 3097 1870 3000 
Q 1622 2903 1453 2725 
Q 1184 2453 1037 2087 
Q 891 1722 891 1331 
Q 891 859 1127 628 
Q 1363 397 1844 397 
Q 2081 397 2348 469 
Q 2616 541 2906 684 
L 2797 116 
Q 2547 13 2283 -39 
Q 2019 -91 1741 -91 
Q 1044 -91 669 257 
Q 294 606 294 1253 
Q 294 1797 489 2255 
Q 684 2713 1069 3078 
Q 1331 3328 1684 3456 
Q 2038 3584 2456 3584 
Q 2700 3584 2940 3529 
Q 3181 3475 3431 3366 
z
" transform="scale(0.015625)"/>
       <path id="STIXSizeTwoSym-Regular-29" d="M 730 9792 
L 730 10022 
Q 1805 9011 2432 7507 
Q 3059 6003 3059 4115 
Q 3059 2234 2416 643 
Q 1773 -947 730 -1786 
L 730 -1574 
Q 1459 -826 1955 633 
Q 2451 2093 2451 4115 
Q 2451 7674 730 9792 
z
" transform="scale(0.015625)"/>
      </defs>
      <use xlink:href="#DejaVuSans-Oblique-74" transform="translate(0 0.014062)"/>
      <use xlink:href="#STIXSizeTwoSym-Regular-28" transform="translate(120.386392 -29.129687)scale(0.805412)"/>
      <use xlink:href="#DejaVuSans-Oblique-432" transform="translate(167.819283 0.014062)"/>
      <use xlink:href="#DejaVuSans-Oblique-435" transform="translate(253.813966 0.014062)"/>
      <use xlink:href="#DejaVuSans-Oblique-434" transform="translate(315.337404 0.014062)"/>
      <use xlink:href="#DejaVuSans-Oblique-438" transform="translate(384.478029 0.014062)"/>
      <use xlink:href="#DejaVuSans-Oblique-43d" transform="translate(449.468263 0.014062)"/>
      <use xlink:href="#DejaVuSans-Oblique-438" transform="translate(514.849122 0.014062)"/>
      <use xlink:href="#DejaVuSans-Oblique-446" transform="translate(579.839357 0.014062)"/>
      <use xlink:href="#DejaVuSans-Oblique-430" transform="translate(647.905763 0.014062)"/>
      <use xlink:href="#DejaVuSans-Oblique-445" transform="translate(709.18506 0.014062)"/>
      <use xlink:href="#DejaVuSans-Oblique-127" transform="translate(867.423883 43.810938)scale(0.7)"/>
      <use xlink:href="#DejaVuSans-Oblique-6d" transform="translate(795.423883 -50.603125)scale(0.7)"/>
      <use xlink:href="#DejaVuSans-22c5" transform="translate(877.250055 -50.603125)scale(0.7)"/>
      <use xlink:href="#DejaVuSans-Oblique-63" transform="translate(913.138727 -50.603125)scale(0.7)"/>
      <use xlink:href="#DejaVuSans-32" transform="translate(954.879982 -23.80625)scale(0.49)"/>
      <use xlink:href="#STIXSizeTwoSym-Regular-29" transform="translate(1000.469337 -29.129687)scale(0.805412)"/>
      <path d="M 795.423883 18.810937 
L 795.423883 25.060937 
L 987.969337 25.060937 
L 987.969337 18.810937 
L 795.423883 18.810937 
z
"/>
     </g>
    </g>
   </g>
   <g id="matplotlib.axis_2">
    <g id="ytick_1">
     <g id="line2d_13">
      <path d="M 90 492.48 
L 648 492.48 
" clip-path="url(#p6429786a45)" style="fill: none; stroke: #b0b0b0; stroke-width: 0.8; stroke-linecap: square"/>
     </g>
     <g id="line2d_14">
      <defs>
       <path id="md12011d656" d="M 0 0 
L -3.5 0 
" style="stroke: #000000; stroke-width: 0.8"/>
      </defs>
      <g>
       <use xlink:href="#md12011d656" x="90" y="492.48" style="stroke: #000000; stroke-width: 0.8"/>
      </g>
     </g>
     <g id="text_8">
      <!-- 0 -->
      <g transform="translate(76.6375 496.279219)scale(0.1 -0.1)">
       <use xlink:href="#DejaVuSans-30"/>
      </g>
     </g>
    </g>
    <g id="ytick_2">
     <g id="line2d_15">
      <path d="M 90 402.031625 
L 648 402.031625 
" clip-path="url(#p6429786a45)" style="fill: none; stroke: #b0b0b0; stroke-width: 0.8; stroke-linecap: square"/>
     </g>
     <g id="line2d_16">
      <g>
       <use xlink:href="#md12011d656" x="90" y="402.031625" style="stroke: #000000; stroke-width: 0.8"/>
      </g>
     </g>
     <g id="text_9">
      <!-- 2 -->
      <g transform="translate(76.6375 405.830844)scale(0.1 -0.1)">
       <use xlink:href="#DejaVuSans-32"/>
      </g>
     </g>
    </g>
    <g id="ytick_3">
     <g id="line2d_17">
      <path d="M 90 311.58325 
L 648 311.58325 
" clip-path="url(#p6429786a45)" style="fill: none; stroke: #b0b0b0; stroke-width: 0.8; stroke-linecap: square"/>
     </g>
     <g id="line2d_18">
      <g>
       <use xlink:href="#md12011d656" x="90" y="311.58325" style="stroke: #000000; stroke-width: 0.8"/>
      </g>
     </g>
     <g id="text_10">
      <!-- 4 -->
      <g transform="translate(76.6375 315.382469)scale(0.1 -0.1)">
       <use xlink:href="#DejaVuSans-34"/>
      </g>
     </g>
    </g>
    <g id="ytick_4">
     <g id="line2d_19">
      <path d="M 90 221.134875 
L 648 221.134875 
" clip-path="url(#p6429786a45)" style="fill: none; stroke: #b0b0b0; stroke-width: 0.8; stroke-linecap: square"/>
     </g>
     <g id="line2d_20">
      <g>
       <use xlink:href="#md12011d656" x="90" y="221.134875" style="stroke: #000000; stroke-width: 0.8"/>
      </g>
     </g>
     <g id="text_11">
      <!-- 6 -->
      <g transform="translate(76.6375 224.934094)scale(0.1 -0.1)">
       <use xlink:href="#DejaVuSans-36"/>
      </g>
     </g>
    </g>
    <g id="ytick_5">
     <g id="line2d_21">
      <path d="M 90 130.6865 
L 648 130.6865 
" clip-path="url(#p6429786a45)" style="fill: none; stroke: #b0b0b0; stroke-width: 0.8; stroke-linecap: square"/>
     </g>
     <g id="line2d_22">
      <g>
       <use xlink:href="#md12011d656" x="90" y="130.6865" style="stroke: #000000; stroke-width: 0.8"/>
      </g>
     </g>
     <g id="text_12">
      <!-- 8 -->
      <g transform="translate(76.6375 134.485719)scale(0.1 -0.1)">
       <use xlink:href="#DejaVuSans-38"/>
      </g>
     </g>
    </g>
    <g id="text_13">
     <!-- x$\;\;\;\left(в\;единицах\;\frac{\hbar}{m \cdot c}\right)$ -->
     <g transform="translate(68.1575 373.44)rotate(-90)scale(0.16 -0.16)">
      <defs>
       <path id="DejaVuSans-78" d="M 3513 3500 
L 2247 1797 
L 3578 0 
L 2900 0 
L 1881 1375 
L 863 0 
L 184 0 
L 1544 1831 
L 300 3500 
L 978 3500 
L 1906 2253 
L 2834 3500 
L 3513 3500 
z
" transform="scale(0.015625)"/>
       <path id="STIXSizeOneSym-Regular-28" d="M 2445 -858 
L 2445 -1050 
Q 1728 -371 1309 630 
Q 890 1632 890 2886 
Q 890 4122 1309 5136 
Q 1728 6150 2445 6822 
L 2445 6630 
Q 1408 5363 1408 2886 
Q 1408 410 2445 -858 
z
" transform="scale(0.015625)"/>
       <path id="STIXSizeOneSym-Regular-29" d="M 550 6630 
L 550 6822 
Q 1267 6144 1686 5142 
Q 2106 4141 2106 2886 
Q 2106 1651 1686 636 
Q 1267 -378 550 -1050 
L 550 -858 
Q 1587 410 1587 2886 
Q 1587 5363 550 6630 
z
" transform="scale(0.015625)"/>
      </defs>
      <use xlink:href="#DejaVuSans-78" transform="translate(0 0.007812)"/>
      <use xlink:href="#STIXSizeOneSym-Regular-28" transform="translate(140.357095 -11.015625)scale(1.013288)"/>
      <use xlink:href="#DejaVuSans-Oblique-432" transform="translate(187.778649 0.007812)"/>
      <use xlink:href="#DejaVuSans-Oblique-435" transform="translate(273.773332 0.007812)"/>
      <use xlink:href="#DejaVuSans-Oblique-434" transform="translate(335.296769 0.007812)"/>
      <use xlink:href="#DejaVuSans-Oblique-438" transform="translate(404.437394 0.007812)"/>
      <use xlink:href="#DejaVuSans-Oblique-43d" transform="translate(469.427629 0.007812)"/>
      <use xlink:href="#DejaVuSans-Oblique-438" transform="translate(534.808488 0.007812)"/>
      <use xlink:href="#DejaVuSans-Oblique-446" transform="translate(599.798723 0.007812)"/>
      <use xlink:href="#DejaVuSans-Oblique-430" transform="translate(667.865129 0.007812)"/>
      <use xlink:href="#DejaVuSans-Oblique-445" transform="translate(729.144426 0.007812)"/>
      <use xlink:href="#DejaVuSans-Oblique-127" transform="translate(869.383249 43.804688)scale(0.7)"/>
      <use xlink:href="#DejaVuSans-Oblique-6d" transform="translate(815.383249 -26.645312)scale(0.7)"/>
      <use xlink:href="#DejaVuSans-22c5" transform="translate(897.209421 -26.645312)scale(0.7)"/>
      <use xlink:href="#DejaVuSans-Oblique-63" transform="translate(933.098093 -26.645312)scale(0.7)"/>
      <use xlink:href="#STIXSizeOneSym-Regular-29" transform="translate(984.084421 -11.015625)scale(1.013288)"/>
      <path d="M 815.383249 18.804688 
L 815.383249 25.054688 
L 971.584421 25.054688 
L 971.584421 18.804688 
L 815.383249 18.804688 
z
"/>
     </g>
    </g>
   </g>
   <g id="line2d_23">
    <path d="M 115.363636 492.48 
L 120.185138 490.205719 
L 125.260403 487.562885 
L 131.096958 484.261661 
L 137.694802 480.262648 
L 145.307699 475.377389 
L 154.189413 469.405521 
L 164.593706 462.135777 
L 176.520578 453.526574 
L 190.73132 442.986523 
L 207.479694 430.281256 
L 227.273228 414.977256 
L 249.858156 397.226557 
L 276.249534 376.192238 
L 307.716176 350.818686 
L 344.258084 321.060839 
L 386.636546 286.256991 
L 435.359089 245.946509 
L 492.963345 197.989752 
L 562.240711 140.016268 
L 622.636364 89.28 
L 622.636364 89.28 
" clip-path="url(#p6429786a45)" style="fill: none; stroke: #1f77b4; stroke-width: 1.5; stroke-linecap: square"/>
   </g>
   <g id="patch_3">
    <path d="M 90 512.64 
L 90 69.12 
" style="fill: none; stroke: #000000; stroke-width: 0.8; stroke-linejoin: miter; stroke-linecap: square"/>
   </g>
   <g id="patch_4">
    <path d="M 648 512.64 
L 648 69.12 
" style="fill: none; stroke: #000000; stroke-width: 0.8; stroke-linejoin: miter; stroke-linecap: square"/>
   </g>
   <g id="patch_5">
    <path d="M 90 512.64 
L 648 512.64 
" style="fill: none; stroke: #000000; stroke-width: 0.8; stroke-linejoin: miter; stroke-linecap: square"/>
   </g>
   <g id="patch_6">
    <path d="M 90 69.12 
L 648 69.12 
" style="fill: none; stroke: #000000; stroke-width: 0.8; stroke-linejoin: miter; stroke-linecap: square"/>
   </g>
   <g id="text_14">
    <!-- $Движение\;в\;(t, x)\;плоскости$ -->
    <g transform="translate(252.28 63.12)scale(0.16 -0.16)">
     <defs>
      <path id="DejaVuSans-Oblique-414" d="M 1206 531 
L 3269 531 
L 3969 4134 
L 2453 4134 
L 2325 3472 
Q 2022 1913 1472 878 
Q 1356 666 1206 531 
z
M 284 531 
Q 741 728 934 1103 
Q 1425 2066 1756 3784 
L 1928 4666 
L 4703 4666 
L 3900 531 
L 4431 531 
L 4134 -1003 
L 3603 -1003 
L 3797 0 
L 491 0 
L 297 -1003 
L -234 -1003 
L 63 531 
L 284 531 
z
" transform="scale(0.015625)"/>
      <path id="DejaVuSans-Oblique-436" d="M 2938 3500 
L 3509 3500 
L 3191 1856 
L 5038 3500 
L 5706 3500 
L 4188 2153 
L 5206 0 
L 4591 0 
L 3756 1769 
L 3050 1141 
L 2828 0 
L 2256 0 
L 2478 1141 
L 2016 1769 
L 494 0 
L -122 0 
L 1734 2153 
L 741 3500 
L 1409 3500 
L 2619 1856 
L 2938 3500 
z
" transform="scale(0.015625)"/>
      <path id="DejaVuSans-28" d="M 1984 4856 
Q 1566 4138 1362 3434 
Q 1159 2731 1159 2009 
Q 1159 1288 1364 580 
Q 1569 -128 1984 -844 
L 1484 -844 
Q 1016 -109 783 600 
Q 550 1309 550 2009 
Q 550 2706 781 3412 
Q 1013 4119 1484 4856 
L 1984 4856 
z
" transform="scale(0.015625)"/>
      <path id="DejaVuSans-2c" d="M 750 794 
L 1409 794 
L 1409 256 
L 897 -744 
L 494 -744 
L 750 256 
L 750 794 
z
" transform="scale(0.015625)"/>
      <path id="DejaVuSans-Oblique-78" d="M 3841 3500 
L 2234 1784 
L 3219 0 
L 2559 0 
L 1819 1388 
L 531 0 
L -166 0 
L 1556 1844 
L 641 3500 
L 1300 3500 
L 1972 2234 
L 3144 3500 
L 3841 3500 
z
" transform="scale(0.015625)"/>
      <path id="DejaVuSans-29" d="M 513 4856 
L 1013 4856 
Q 1481 4119 1714 3412 
Q 1947 2706 1947 2009 
Q 1947 1309 1714 600 
Q 1481 -109 1013 -844 
L 513 -844 
Q 928 -128 1133 580 
Q 1338 1288 1338 2009 
Q 1338 2731 1133 3434 
Q 928 4138 513 4856 
z
" transform="scale(0.015625)"/>
      <path id="DejaVuSans-Oblique-43f" d="M 3944 3500 
L 3263 0 
L 2684 0 
L 3275 3041 
L 1409 3041 
L 819 0 
L 241 0 
L 922 3500 
L 3944 3500 
z
" transform="scale(0.015625)"/>
      <path id="DejaVuSans-Oblique-43b" d="M 1534 3500 
L 3900 3500 
L 3219 0 
L 2644 0 
L 3234 3041 
L 2019 3041 
L 1953 2694 
Q 1691 1344 1284 717 
Q 878 91 -103 0 
L -9 478 
Q 575 566 828 959 
Q 1147 1513 1422 2928 
L 1534 3500 
z
" transform="scale(0.015625)"/>
      <path id="DejaVuSans-Oblique-43e" d="M 1625 -91 
Q 1009 -91 651 289 
Q 294 669 294 1325 
Q 294 1706 417 2101 
Q 541 2497 738 2766 
Q 1047 3184 1428 3384 
Q 1809 3584 2291 3584 
Q 2888 3584 3255 3212 
Q 3622 2841 3622 2241 
Q 3622 1825 3500 1412 
Q 3378 1000 3181 728 
Q 2875 309 2494 109 
Q 2113 -91 1625 -91 
z
M 891 1344 
Q 891 869 1089 633 
Q 1288 397 1691 397 
Q 2269 397 2648 901 
Q 3028 1406 3028 2181 
Q 3028 2634 2825 2865 
Q 2622 3097 2228 3097 
Q 1903 3097 1650 2945 
Q 1397 2794 1197 2484 
Q 1050 2253 970 1956 
Q 891 1659 891 1344 
z
" transform="scale(0.015625)"/>
      <path id="DejaVuSans-Oblique-441" d="M 3431 3366 
L 3316 2797 
Q 3109 2947 2876 3022 
Q 2644 3097 2394 3097 
Q 2119 3097 1870 3000 
Q 1622 2903 1453 2725 
Q 1184 2453 1037 2087 
Q 891 1722 891 1331 
Q 891 859 1127 628 
Q 1363 397 1844 397 
Q 2081 397 2348 469 
Q 2616 541 2906 684 
L 2797 116 
Q 2547 13 2283 -39 
Q 2019 -91 1741 -91 
Q 1044 -91 669 257 
Q 294 606 294 1253 
Q 294 1797 489 2255 
Q 684 2713 1069 3078 
Q 1331 3328 1684 3456 
Q 2038 3584 2456 3584 
Q 2700 3584 2940 3529 
Q 3181 3475 3431 3366 
z
" transform="scale(0.015625)"/>
      <path id="DejaVuSans-Oblique-43a" d="M 922 3500 
L 1494 3500 
L 1175 1856 
L 3116 3500 
L 3822 3500 
L 2222 2147 
L 3313 0 
L 2669 0 
L 1772 1766 
L 1034 1141 
L 813 0 
L 241 0 
L 922 3500 
z
" transform="scale(0.015625)"/>
      <path id="DejaVuSans-Oblique-442" d="M 528 3500 
L 3881 3500 
L 3791 3041 
L 2397 3041 
L 1806 0 
L 1241 0 
L 1831 3041 
L 438 3041 
L 528 3500 
z
" transform="scale(0.015625)"/>
     </defs>
     <use xlink:href="#DejaVuSans-Oblique-414" transform="translate(0 0.125)"/>
     <use xlink:href="#DejaVuSans-Oblique-432" transform="translate(78.125 0.125)"/>
     <use xlink:href="#DejaVuSans-Oblique-438" transform="translate(137.060547 0.125)"/>
     <use xlink:href="#DejaVuSans-Oblique-436" transform="translate(202.050781 0.125)"/>
     <use xlink:href="#DejaVuSans-Oblique-435" transform="translate(292.138672 0.125)"/>
     <use xlink:href="#DejaVuSans-Oblique-43d" transform="translate(353.662109 0.125)"/>
     <use xlink:href="#DejaVuSans-Oblique-438" transform="translate(419.042969 0.125)"/>
     <use xlink:href="#DejaVuSans-Oblique-435" transform="translate(484.033203 0.125)"/>
     <use xlink:href="#DejaVuSans-Oblique-432" transform="translate(572.615776 0.125)"/>
     <use xlink:href="#DejaVuSans-28" transform="translate(658.610459 0.125)"/>
     <use xlink:href="#DejaVuSans-Oblique-74" transform="translate(697.624131 0.125)"/>
     <use xlink:href="#DejaVuSans-2c" transform="translate(736.833115 0.125)"/>
     <use xlink:href="#DejaVuSans-Oblique-78" transform="translate(788.102646 0.125)"/>
     <use xlink:href="#DejaVuSans-29" transform="translate(847.282334 0.125)"/>
     <use xlink:href="#DejaVuSans-Oblique-43f" transform="translate(913.355142 0.125)"/>
     <use xlink:href="#DejaVuSans-Oblique-43b" transform="translate(978.736001 0.125)"/>
     <use xlink:href="#DejaVuSans-Oblique-43e" transform="translate(1042.652017 0.125)"/>
     <use xlink:href="#DejaVuSans-Oblique-441" transform="translate(1103.833657 0.125)"/>
     <use xlink:href="#DejaVuSans-Oblique-43a" transform="translate(1158.814126 0.125)"/>
     <use xlink:href="#DejaVuSans-Oblique-43e" transform="translate(1219.214517 0.125)"/>
     <use xlink:href="#DejaVuSans-Oblique-441" transform="translate(1280.396157 0.125)"/>
     <use xlink:href="#DejaVuSans-Oblique-442" transform="translate(1335.376626 0.125)"/>
     <use xlink:href="#DejaVuSans-Oblique-438" transform="translate(1393.628579 0.125)"/>
    </g>
   </g>
   <g id="legend_1">
    <g id="patch_7">
     <path d="M 100.5 120.366094 
L 367.95 120.366094 
Q 370.95 120.366094 370.95 117.366094 
L 370.95 79.62 
Q 370.95 76.62 367.95 76.62 
L 100.5 76.62 
Q 97.5 76.62 97.5 79.62 
L 97.5 117.366094 
Q 97.5 120.366094 100.5 120.366094 
z
" style="fill: #ffffff; opacity: 0.8; stroke: #cccccc; stroke-linejoin: miter"/>
    </g>
    <g id="text_15">
     <!-- $Вид\;кривых$ -->
     <g transform="translate(203.425 90.218437)scale(0.1 -0.1)">
      <defs>
       <path id="DejaVuSans-Oblique-412" d="M 1081 4666 
L 2694 4666 
Q 3350 4666 3675 4422 
Q 4000 4178 4000 3688 
Q 4000 3238 3720 2911 
Q 3441 2584 2988 2516 
Q 3375 2428 3569 2181 
Q 3763 1934 3763 1522 
Q 3763 819 3242 409 
Q 2722 0 1819 0 
L 172 0 
L 1081 4666 
z
M 1234 2228 
L 903 519 
L 1919 519 
Q 2491 519 2800 781 
Q 3109 1044 3109 1522 
Q 3109 1891 2904 2059 
Q 2700 2228 2247 2228 
L 1234 2228 
z
M 1606 4147 
L 1331 2741 
L 2272 2741 
Q 2775 2741 3058 2959 
Q 3341 3178 3341 3566 
Q 3341 3869 3150 4008 
Q 2959 4147 2541 4147 
L 1606 4147 
z
" transform="scale(0.015625)"/>
       <path id="DejaVuSans-Oblique-440" d="M 3175 2156 
Q 3175 2616 2975 2859 
Q 2775 3103 2400 3103 
Q 2144 3103 1911 2972 
Q 1678 2841 1497 2591 
Q 1319 2344 1212 1994 
Q 1106 1644 1106 1300 
Q 1106 863 1306 627 
Q 1506 391 1875 391 
Q 2147 391 2380 519 
Q 2613 647 2778 891 
Q 2956 1147 3065 1494 
Q 3175 1841 3175 2156 
z
M 1394 2969 
Q 1625 3272 1939 3428 
Q 2253 3584 2638 3584 
Q 3175 3584 3472 3232 
Q 3769 2881 3769 2247 
Q 3769 1728 3584 1258 
Q 3400 788 3053 416 
Q 2822 169 2531 39 
Q 2241 -91 1919 -91 
Q 1547 -91 1294 64 
Q 1041 219 916 525 
L 556 -1331 
L -19 -1331 
L 922 3500 
L 1497 3500 
L 1394 2969 
z
" transform="scale(0.015625)"/>
       <path id="DejaVuSans-Oblique-44b" d="M 2656 1159 
Q 2656 1613 1950 1613 
L 1131 1613 
L 909 459 
L 1728 459 
Q 2528 459 2644 1038 
Q 2656 1103 2656 1159 
z
M 2066 2072 
Q 3281 2072 3281 1278 
Q 3281 1166 3256 1038 
Q 3053 0 1663 0 
L 241 0 
L 922 3500 
L 1500 3500 
L 1222 2072 
L 2066 2072 
z
M 4216 3500 
L 4791 3500 
L 4106 0 
L 3531 0 
L 4216 3500 
z
" transform="scale(0.015625)"/>
      </defs>
      <use xlink:href="#DejaVuSans-Oblique-412" transform="translate(0 0.09375)"/>
      <use xlink:href="#DejaVuSans-Oblique-438" transform="translate(68.603516 0.09375)"/>
      <use xlink:href="#DejaVuSans-Oblique-434" transform="translate(133.59375 0.09375)"/>
      <use xlink:href="#DejaVuSans-Oblique-43a" transform="translate(229.793511 0.09375)"/>
      <use xlink:href="#DejaVuSans-Oblique-440" transform="translate(290.193901 0.09375)"/>
      <use xlink:href="#DejaVuSans-Oblique-438" transform="translate(353.670464 0.09375)"/>
      <use xlink:href="#DejaVuSans-Oblique-432" transform="translate(418.660698 0.09375)"/>
      <use xlink:href="#DejaVuSans-Oblique-44b" transform="translate(477.596245 0.09375)"/>
      <use xlink:href="#DejaVuSans-Oblique-445" transform="translate(556.551323 0.09375)"/>
     </g>
    </g>
    <g id="line2d_24">
     <path d="M 103.5 105.966094 
L 118.5 105.966094 
L 133.5 105.966094 
" style="fill: none; stroke: #1f77b4; stroke-width: 1.5; stroke-linecap: square"/>
    </g>
    <g id="text_16">
     <!-- $Численное\;интегрирование$ -->
     <g transform="translate(145.5 111.216094)scale(0.15 -0.15)">
      <defs>
       <path id="DejaVuSans-Oblique-427" d="M 1353 3078 
Q 1353 2444 1972 2444 
L 3147 2444 
L 3578 4666 
L 4213 4666 
L 3306 0 
L 2672 0 
L 3044 1913 
L 1741 1913 
Q 1159 1913 881 2275 
Q 700 2516 700 2919 
Q 700 3131 750 3384 
L 1000 4666 
L 1628 4666 
L 1391 3434 
Q 1353 3234 1353 3078 
z
" transform="scale(0.015625)"/>
       <path id="DejaVuSans-Oblique-433" d="M 241 0 
L 922 3500 
L 3391 3500 
L 3300 3041 
L 1409 3041 
L 819 0 
L 241 0 
z
" transform="scale(0.015625)"/>
      </defs>
      <use xlink:href="#DejaVuSans-Oblique-427" transform="translate(0 0.09375)"/>
      <use xlink:href="#DejaVuSans-Oblique-438" transform="translate(68.554688 0.09375)"/>
      <use xlink:href="#DejaVuSans-Oblique-441" transform="translate(133.544922 0.09375)"/>
      <use xlink:href="#DejaVuSans-Oblique-43b" transform="translate(188.525391 0.09375)"/>
      <use xlink:href="#DejaVuSans-Oblique-435" transform="translate(252.441406 0.09375)"/>
      <use xlink:href="#DejaVuSans-Oblique-43d" transform="translate(313.964844 0.09375)"/>
      <use xlink:href="#DejaVuSans-Oblique-43d" transform="translate(379.345703 0.09375)"/>
      <use xlink:href="#DejaVuSans-Oblique-43e" transform="translate(444.726562 0.09375)"/>
      <use xlink:href="#DejaVuSans-Oblique-435" transform="translate(505.908203 0.09375)"/>
      <use xlink:href="#DejaVuSans-Oblique-438" transform="translate(594.490776 0.09375)"/>
      <use xlink:href="#DejaVuSans-Oblique-43d" transform="translate(659.481011 0.09375)"/>
      <use xlink:href="#DejaVuSans-Oblique-442" transform="translate(724.86187 0.09375)"/>
      <use xlink:href="#DejaVuSans-Oblique-435" transform="translate(783.113823 0.09375)"/>
      <use xlink:href="#DejaVuSans-Oblique-433" transform="translate(844.637261 0.09375)"/>
      <use xlink:href="#DejaVuSans-Oblique-440" transform="translate(897.176323 0.09375)"/>
      <use xlink:href="#DejaVuSans-Oblique-438" transform="translate(960.652886 0.09375)"/>
      <use xlink:href="#DejaVuSans-Oblique-440" transform="translate(1025.64312 0.09375)"/>
      <use xlink:href="#DejaVuSans-Oblique-43e" transform="translate(1089.119683 0.09375)"/>
      <use xlink:href="#DejaVuSans-Oblique-432" transform="translate(1150.301323 0.09375)"/>
      <use xlink:href="#DejaVuSans-Oblique-430" transform="translate(1209.23687 0.09375)"/>
      <use xlink:href="#DejaVuSans-Oblique-43d" transform="translate(1270.516167 0.09375)"/>
      <use xlink:href="#DejaVuSans-Oblique-438" transform="translate(1335.897026 0.09375)"/>
      <use xlink:href="#DejaVuSans-Oblique-435" transform="translate(1400.887261 0.09375)"/>
     </g>
    </g>
   </g>
  </g>
 </g>
 <defs>
  <clipPath id="p6429786a45">
   <rect x="90" y="69.12" width="558" height="443.52"/>
  </clipPath>
 </defs>
</svg>
